<?xml version="1.0" standalone="no"?>
<!DOCTYPE svg PUBLIC "-//W3C//DTD SVG 20010904//EN"
 "http://www.w3.org/TR/2001/REC-SVG-20010904/DTD/svg10.dtd">
<svg version="1.0" xmlns="http://www.w3.org/2000/svg"
 width="16.000000pt" height="16.000000pt" viewBox="0 0 16.000000 16.000000"
 preserveAspectRatio="xMidYMid meet">
<metadata>
Created by potrace 1.11, written by Peter Selinger 2001-2013
</metadata>
<g transform="translate(0.000000,16.000000) scale(0.006154,-0.006154)"
fill="#000000" stroke="none">
<path d="M295 2550 c-104 -6 -139 -15 -128 -33 3 -5 1 -7 -4 -4 -13 8 -65 -31
-58 -44 4 -5 0 -9 -8 -9 -21 0 -47 -65 -47 -118 0 -27 -6 -54 -12 -61 -11 -11
-10 -13 0 -7 9 5 12 -1 12 -21 0 -15 -1 -66 -1 -112 0 -47 -1 -142 -2 -213 -1
-70 2 -128 6 -128 5 0 5 -4 2 -10 -9 -15 -11 -950 -2 -950 5 0 5 -5 2 -10 -5
-8 -7 -507 -3 -620 0 -8 11 -29 24 -47 13 -17 24 -36 24 -42 0 -6 12 -14 26
-17 16 -4 23 -12 20 -20 -3 -8 -2 -13 2 -12 4 1 20 -4 37 -11 33 -14 375 -21
375 -8 0 5 5 5 11 1 14 -8 103 -9 116 -1 6 4 13 4 16 1 3 -4 39 -6 79 -5 104
2 171 1 179 -5 4 -2 10 -1 13 4 2 4 32 5 66 2 34 -3 64 -2 66 2 3 5 9 6 14 3
10 -6 579 -9 585 -3 2 2 105 1 230 -2 125 -3 231 -3 236 0 4 3 36 3 69 0 34
-3 63 -4 65 -1 3 2 29 4 60 3 42 0 55 4 55 15 0 8 4 12 9 9 12 -8 100 80 112
111 10 28 15 705 5 722 -4 6 -3 11 1 11 5 0 8 15 6 32 -1 18 -2 179 -2 358 1
179 0 332 0 340 -1 8 -1 26 0 40 0 14 1 32 0 40 0 8 0 107 0 220 0 113 0 230
0 260 -1 30 -1 84 -1 120 1 57 -3 71 -30 112 -40 61 -111 108 -162 108 -179 2
-259 1 -268 -5 -5 -3 -10 -3 -10 2 0 9 -935 7 -950 -2 -6 -3 -10 -3 -10 2 0 9
-668 11 -825 3z m35 -84 c0 -2 -7 -7 -16 -10 -8 -3 -12 -2 -9 4 6 10 25 14 25
6z m255 -185 c3 -5 2 -12 -3 -15 -5 -3 -9 1 -9 9 0 17 3 19 12 6z m-264 -188
c13 -16 12 -17 -3 -4 -10 7 -18 15 -18 17 0 8 8 3 21 -13z m1939 -229 c0 -8
-19 -13 -24 -6 -3 5 1 9 9 9 8 0 15 -2 15 -3z m-1749 -221 c13 -16 12 -17 -3
-4 -10 7 -18 15 -18 17 0 8 8 3 21 -13z m1994 -2 c3 -5 2 -12 -3 -15 -5 -3 -9
1 -9 9 0 17 3 19 12 6z m-2165 -257 c0 -8 -19 -13 -24 -6 -3 5 1 9 9 9 8 0 15
-2 15 -3z m2155 -344 c3 -6 -1 -7 -9 -4 -18 7 -21 14 -7 14 6 0 13 -4 16 -10z
m-2031 -686 c3 -8 2 -12 -4 -9 -6 3 -10 10 -10 16 0 14 7 11 14 -7z m1323 1
c0 -8 -4 -12 -9 -9 -5 3 -6 10 -3 15 9 13 12 11 12 -6z m663 -69 c0 -2 -7 -7
-16 -10 -8 -3 -12 -2 -9 4 6 10 25 14 25 6z m-380 -70 c0 -2 -8 -10 -17 -17
-16 -13 -17 -12 -4 4 13 16 21 21 21 13z"/>
</g>
</svg>
